<?xml version="1.0" encoding="UTF-8" standalone="no"?>
<svg
   xmlns:dc="http://purl.org/dc/elements/1.1/"
   xmlns:cc="http://creativecommons.org/ns#"
   xmlns:rdf="http://www.w3.org/1999/02/22-rdf-syntax-ns#"
   xmlns:svg="http://www.w3.org/2000/svg"
   xmlns="http://www.w3.org/2000/svg"
   xmlns:sodipodi="http://sodipodi.sourceforge.net/DTD/sodipodi-0.dtd"
   xmlns:inkscape="http://www.inkscape.org/namespaces/inkscape"
   viewBox="0 0 999.99999 224.09153"
   class="css-13udsys"
   version="1.1"
   id="svg9964"
   sodipodi:docname="A.svg"
   width="1000"
   height="224.09152"
   inkscape:version="0.92.4 (5da689c313, 2019-01-14)">
  <metadata
     id="metadata9970">
    <rdf:RDF>
      <cc:Work
         rdf:about="">
        <dc:format>image/svg+xml</dc:format>
        <dc:type
           rdf:resource="http://purl.org/dc/dcmitype/StillImage" />
        <dc:title></dc:title>
      </cc:Work>
    </rdf:RDF>
  </metadata>
  <defs
     id="defs9968" />
  <sodipodi:namedview
     pagecolor="#ffffff"
     bordercolor="#111111"
     borderopacity="1"
     objecttolerance="10"
     gridtolerance="10"
     guidetolerance="10"
     inkscape:pageopacity="0"
     inkscape:pageshadow="2"
     inkscape:window-width="1920"
     inkscape:window-height="1017"
     id="namedview9966"
     showgrid="false"
     fit-margin-top="0"
     fit-margin-left="0"
     fit-margin-right="0"
     fit-margin-bottom="0"
     inkscape:zoom="0.55655132"
     inkscape:cx="297.367"
     inkscape:cy="66.700003"
     inkscape:window-x="1912"
     inkscape:window-y="-8"
     inkscape:window-maximized="1"
     inkscape:current-layer="svg9964" />
  <path
     d="M 999.83176,221.06326 H 962.65141 V 42.395693 L 906.4603,139.63661 c -6.39301,11.27187 -18.33782,18.33782 -31.29206,18.16958 -12.95424,0 -25.0673,-6.89771 -31.4603,-18.16958 L 787.51682,41.554509 V 221.06326 H 750.33647 V 39.703903 c 0,-20.020188 16.31898,-36.170928 36.33917,-36.170928 12.95424,0 24.89906,6.897712 31.29206,18.169582 L 875.16824,122.30821 932.36878,21.702557 C 942.29475,4.374159 964.50202,-1.682369 981.83042,8.243607 993.10229,14.636608 1000,26.581427 1000,39.703903 Z m -839.33378,0 c -12.95424,0 -24.89906,-7.06595 -31.12382,-18.33782 L 37.18035,41.554509 V 221.06326 H 0 V 39.703903 C 0,19.683715 16.15074,3.532975 36.002692,3.364738 c 13.122476,0 25.067295,6.897712 31.628533,18.337819 L 159.82503,182.87349 V 3.364738 h 37.18035 V 184.89233 c 0.16824,16.48721 -10.93539,30.95558 -26.9179,34.99327 -3.1965,0.84118 -6.393,1.17766 -9.5895,1.17766 z m 186.23822,3.02826 c -61.91117,0 -112.04576,-50.13459 -112.04576,-112.04576 C 234.69044,50.13459 284.82503,0 346.7362,0 c 61.91118,0 112.04577,50.13459 112.04577,112.04576 0.16823,61.74293 -49.62988,111.87752 -111.37282,112.04576 z m 0,-187.079407 c -41.04979,0 -73.35127,32.974428 -73.35127,75.033647 -0.33648,20.02019 7.40242,39.36743 21.36608,53.66756 28.60027,28.60027 75.03365,28.60027 103.63392,0 13.96366,-14.30013 21.53432,-33.64737 21.36608,-53.66756 C 419.91925,69.986541 387.786,37.012113 346.7362,37.012113 Z M 600.77389,224.09152 c -61.91117,0 -112.04576,-50.13459 -112.04576,-112.04576 C 488.72813,50.13459 538.86272,0 600.77389,0 c 61.91117,0 112.04576,50.13459 112.04576,112.04576 0.16824,61.74293 -49.62988,111.87752 -111.37281,112.04576 z m 0,-187.079407 c -41.0498,0 -73.35128,32.974428 -73.35128,75.033647 -0.16824,20.02019 7.40242,39.36743 21.36608,53.66756 28.60027,28.60027 75.03365,28.60027 103.63392,0 13.96366,-14.30013 21.53432,-33.64737 21.36608,-53.66756 0,-42.059219 -32.13324,-75.033647 -73.0148,-75.033647 z"
     id="path9962"
     inkscape:connector-curvature="0"
     style="fill:currentColor;stroke-width:1.68236876" />
</svg>
