<?xml version="1.0" standalone="yes"?>
<svg xmlns="http://www.w3.org/2000/svg" width="150" height="148">
<path style="fill:#212338; stroke:none;" d="M0 0L0 148L150 148L150 0L0 0z"/>
<path style="fill:#6c3f3c; stroke:none;" d="M70 14L74 25L73 27C66.3578 25.0773 58.7042 9.09789 52 10.1667C43.9548 11.4492 44.0178 26.3016 39.8333 31C34.8236 36.625 28.3346 39.9734 24.3333 47C15.739 62.0925 16.4133 78.6794 18 95C18.4968 100.11 18.427 106.369 21 111C27.4472 122.605 41.2271 130.604 53 136C80.8898 148.783 119.637 139.156 133 110C138.097 98.88 135.529 79.4483 132.667 68C127.972 49.2211 109.907 32.3856 93 24.1667C88.4819 21.9704 81.8776 23.0363 78 20.6667C75.005 18.8363 73.0256 15.7517 70 14z"/>
<path style="fill:#b36445; stroke:none;" d="M53 18C44.8054 40.2426 21.4898 50.3907 19 76C17.5869 90.5352 20.4089 110.019 32 120C35.607 123.106 40.847 123.75 45 126C66.7855 137.8 87.2529 142.686 109 130C118.614 124.392 128.777 117.238 131.667 105C134.213 94.2164 133.496 80.6522 130.833 70C128.27 59.7456 122.839 50.9239 115.833 43C106.281 32.1944 95.6793 32.0197 84 26.6667C79.9149 24.7943 76.8019 21.2011 73 19C75.2399 25.0798 79.522 31.1248 86 33C72.3488 36.2332 64.7094 21.0814 53 18z"/>
<path style="fill:#212338; stroke:none;" d="M74 25L75 26L74 25z"/>
<path style="fill:#eda059; stroke:none;" d="M78 25C82.04 31.9781 96.961 35.6852 95 45L110 56C106.968 45.5242 101.722 42.1123 94 35C108.949 40.5074 123.497 53.7007 126.667 70C127.276 73.133 125.738 75.8543 126 79C126.693 87.3165 127.681 96.085 123.833 104C119.609 112.691 112.096 113.904 106 120C103.507 122.493 103.232 126.789 100 128.5C92.3473 132.551 77.4915 130 69 130C71.0813 135.298 81.1259 135.474 86 135C99.3277 133.704 110.639 128.937 120 119C139.788 97.9945 131.956 60.016 112 42C103.177 34.0349 88.9053 29.0177 78 25z"/>
<path style="fill:#ef9695; stroke:none;" d="M57 27L57 28C71.4762 32.1905 66.2241 40.7513 70 51L71 51L73 38L73 37L57 27z"/>
<path style="fill:#eda059; stroke:none;" d="M57 126C54.7906 120.403 49.3385 115.669 44 113L44 118C39.4085 115.704 32.3368 113.409 29.3333 109C26.9784 105.543 28.4227 100.888 27.6667 97C24.4718 80.5692 26.9061 63.6502 37.3333 50C42.8274 42.8078 50.1174 38.6147 57 33C58.0386 37.9334 67.1616 49.5205 69.8333 38.8333C71.0723 33.8776 59.1742 26.8912 55 28.1667C49.7353 29.7753 42.2279 38.1832 38 42C12.3266 65.1774 14.7185 124.887 57 126z"/>
<path style="fill:#fed06d; stroke:none;" d="M56 33C49.5282 38.2796 42.4981 42.2389 37.3333 49C26.5068 63.173 24.357 80.9788 27.6667 98C28.4045 101.795 26.9009 106.688 29.3333 110C32.1898 113.89 39.5233 116.586 44 118C46.8636 110.746 36.9821 112.281 35.1667 107C33.7235 102.802 35.6672 97.3672 35 93C34.1681 87.555 29.0206 85.4107 30 79C30.5563 75.3587 33.6496 74.4185 35.5 71.6667C37.5048 68.6852 37.4997 64.2201 39.3333 61C44.1425 52.5546 53.4755 45.0051 63 43L63 42L56 33M47 37L50 36L47 37M94 35C96.8024 39.4584 102.503 41.4444 105.667 46C110.787 53.3739 112.004 63.1288 116 71C117.634 74.2189 121.398 75.0564 122 79C122.94 85.151 117.799 86.7706 117 92C116.328 96.3966 118.897 103.971 116.5 107.833C114.792 110.586 109.698 111.722 107 113.333C100.922 116.963 94.4861 122.941 93 130C102.372 128.274 101.219 124.706 108 119.167C114.017 114.251 120.08 112.722 123.833 105C128.124 96.1727 126 87.1316 126 78C126 58.9973 114.591 39.335 94 35z"/>
<path style="fill:#b866bc; stroke:none;" d="M71 51L70 51L67 43C57.439 44.7612 47.1639 48.0805 42 57L47 53C47 61.811 48.264 66.7815 57 70L57 71L38 63L37 69C45.5903 73.5212 51.7065 71.9674 61 73C64.4943 73.3883 67.438 75.6537 71 76C84.2356 77.2868 101.549 73.2765 114 70L114 64L94 71L94 70C104.01 67.8926 103.928 61.3117 105 53L109 56C104.426 48.0997 93.8984 43.7025 85 43L81 51L81 37C69.4147 37 71.5232 41.0597 71 51z"/>
<path style="fill:#ef9695; stroke:none;" d="M81 38L81 51C87.0837 46.4372 82.3367 40.6532 83 38L81 38z"/>
<path style="fill:#eda059; stroke:none;" d="M82 39L83 40L82 39M60.6667 43.3333L61.3333 43.6667L60.6667 43.3333z"/>
<path style="fill:#ef9695; stroke:none;" d="M62 43L62 44L65 44L62 43z"/>
<path style="fill:#eda059; stroke:none;" d="M58 44L59 45L58 44z"/>
<path style="fill:#ef9695; stroke:none;" d="M59 44L60 45L59 44M94 44L95 45L94 44z"/>
<path style="fill:#eda059; stroke:none;" d="M55 45L56 46L55 45z"/>
<path style="fill:#ef9695; stroke:none;" d="M56 45L57 46L56 45z"/>
<path style="fill:#b36445; stroke:none;" d="M95 45L96 46L95 45z"/>
<path style="fill:#ef9695; stroke:none;" d="M96 45L97 46L96 45z"/>
<path style="fill:#ad8da2; stroke:none;" d="M54 46L55 47L54 46z"/>
<path style="fill:#b36445; stroke:none;" d="M97 46L98 47L97 46z"/>
<path style="fill:#ef9695; stroke:none;" d="M98 46L99 47L98 46M52 47L53 48L52 47z"/>
<path style="fill:#b36445; stroke:none;" d="M99 47L100 48L99 47z"/>
<path style="fill:#eda059; stroke:none;" d="M50 48L51 49L50 48z"/>
<path style="fill:#ef9695; stroke:none;" d="M101 48L102 49L101 48z"/>
<path style="fill:#ad8da2; stroke:none;" d="M49 49L50 50L49 49z"/>
<path style="fill:#ef9695; stroke:none;" d="M106 52L107 53L106 52z"/>
<path style="fill:#5a5fe8; stroke:none;" d="M46 53L40 60L41 63L39 62C41.4025 67.6058 51.1215 70.5359 57 71L57 70L48.5 64L46 53M105 53C103.23 61.4056 103.422 66.5286 94 70L94 71C101.21 70.4308 110.964 67.8712 112 60L105 53z"/>
<path style="fill:#ad8da2; stroke:none;" d="M109 56L110 57L109 56M41 57L42 58L41 57z"/>
<path style="fill:#ef9695; stroke:none;" d="M110 57L111 58L110 57z"/>
<path style="fill:#b866bc; stroke:none;" d="M110 58L111 59L110 58z"/>
<path style="fill:#eda059; stroke:none;" d="M111 58L112 59L111 58z"/>
<path style="fill:#b866bc; stroke:none;" d="M40 59L41 60L40 59z"/>
<path style="fill:#451fca; stroke:none;" d="M41 59L42 60L41 59M110.333 59.6667L110.667 60.3333L110.333 59.6667z"/>
<path style="fill:#ad8da2; stroke:none;" d="M111 59L112 60L111 59z"/>
<path style="fill:#ef9695; stroke:none;" d="M39 60L40 61L39 60z"/>
<path style="fill:#eda059; stroke:none;" d="M112 60L113 61L112 60z"/>
<path style="fill:#b866bc; stroke:none;" d="M39 61L40 62L39 61z"/>
<path style="fill:#451fca; stroke:none;" d="M40.3333 61.6667L40.6667 62.3333L40.3333 61.6667M111.333 61.6667L111.667 62.3333L111.333 61.6667z"/>
<path style="fill:#ad8da2; stroke:none;" d="M112 61L113 62L112 61z"/>
<path style="fill:#eda059; stroke:none;" d="M38 62L39 63L38 62z"/>
<path style="fill:#b866bc; stroke:none;" d="M112 62L113 63L112 62z"/>
<path style="fill:#eda059; stroke:none;" d="M113 62L114 63L113 62z"/>
<path style="fill:#6c3f3c; stroke:none;" d="M39 63L40 64L39 63M112 63L113 64L112 63z"/>
<path style="fill:#ef9695; stroke:none;" d="M113 63L114 64L113 63M37.3333 65.6667L37.6667 66.3333L37.3333 65.6667z"/>
<path style="fill:#eda059; stroke:none;" d="M114 65L115 66L114 65z"/>
<path style="fill:#ef9695; stroke:none;" d="M114 66L111 70L111 71L115 71L114 66z"/>
<path style="fill:#eda059; stroke:none;" d="M36 68L36 71L37 71L36 68z"/>
<path style="fill:#ef9695; stroke:none;" d="M37 69L41 71L41 70L37 69z"/>
<path style="fill:#eda059; stroke:none;" d="M115.333 69.6667L115.667 70.3333L115.333 69.6667z"/>
<path style="fill:#ad8da2; stroke:none;" d="M36 71L36 72L42 72L36 71M110 71L110 72L117 73L110 71z"/>
<path style="fill:#eda059; stroke:none;" d="M34 72L35 73L34 72z"/>
<path style="fill:#5a5fe8; stroke:none;" d="M35 72L31 80C35.6225 79.8751 37.6932 75.7031 35 72z"/>
<path style="fill:#451fca; stroke:none;" d="M36 72C36 76.2576 35.7732 79.484 31 80C31 86.0534 35.1789 88.6257 36 94C36.5345 97.4983 33.8323 105.155 35.5 107.833C37.7105 111.384 46.5438 113.88 50 117C53.72 120.358 56.524 126.811 60.3333 129.5C70.5819 136.734 71 116.003 71 111L70 111C68.2582 113.059 66.4798 113.118 65.3333 110C64.3119 107.222 64.6632 103.87 63.6667 101C60.1905 90.9887 52.2777 90.0789 44 86C41.9645 84.997 39.8037 83.2716 42 82L42 81L38 80C39.7934 76.214 41.46 72.5903 36 72z"/>
<path style="fill:#5a5fe8; stroke:none;" d="M39 72L40 77L95 77C101.699 77 110.629 79.5069 113 72L72 76L39 72z"/>
<path style="fill:#451fca; stroke:none;" d="M111 77L114 78L114 80L110 81C111.258 87.8276 99.5896 88.1012 95 91.3333C88.5206 95.8963 86.1971 105.511 86 113L81 112C81 117.431 80.8185 135.227 91 129.5C95.2697 127.098 99.0932 119.527 103 116C106.262 113.055 113.305 111.369 115.5 107.833C118.066 103.699 114.769 96.5753 116.167 92C117.694 87.0006 121 85.8435 121 80C115.923 79.4656 116 76.4462 116 72L111 77z"/>
<path style="fill:#ad8da2; stroke:none;" d="M33 73L34 74L33 73z"/>
<path style="fill:#5a5fe8; stroke:none;" d="M116 73C116 77.5686 115.878 79.8652 121 80C120.896 76.0567 119.86 74.1174 116 73z"/>
<path style="fill:#eda059; stroke:none;" d="M118 73L119 74L118 73z"/>
<path style="fill:#ad8da2; stroke:none;" d="M32 74L33 75L32 74M119 74L120 75L119 74M120 75L121 76L120 75M30 76L30 81L31 81L30 76z"/>
<path style="fill:#eda059; stroke:none;" d="M121 76L121 79L122 79L121 76z"/>
<path style="fill:#212338; stroke:none;" d="M38 78L38 80C46.3089 84.1544 60.6901 86 70 86L69 130L83 129L82 86C91.2262 86 105.784 84.1081 114 80L114 78L96 77L58 77L38 78z"/>
<path style="fill:#ad8da2; stroke:none;" d="M121 79L121 84L122 84L121 79z"/>
<path style="fill:#b866bc; stroke:none;" d="M30 81L31 82L30 81z"/>
<path style="fill:#5a5fe8; stroke:none;" d="M30 82L30 85L31 85L30 82M40 82C42.5079 88.1861 51.8809 88.2529 57 92.3333C63.2546 97.3188 61.656 108.941 66.3333 112.5C69.0503 114.567 70.7579 111.149 71 109C71.5711 103.931 72.5721 91.4335 69.5 87.1667C66.1574 82.5242 45.4978 82 40 82z"/>
<path style="fill:#451fca; stroke:none;" d="M47 82L48 83L47 82z"/>
<path style="fill:#5a5fe8; stroke:none;" d="M82 86C80.8049 92.4876 77.3164 112.771 86 113C86.6242 105.093 89.1131 96.1159 96 91.3333C100.539 88.1811 110.34 88.1041 111 82L82 86z"/>
<path style="fill:#451fca; stroke:none;" d="M98 83L99 84L98 83z"/>
<path style="fill:#b866bc; stroke:none;" d="M121 84L122 85L121 84M30 85L31 86L30 85z"/>
<path style="fill:#6c3f3c; stroke:none;" d="M64 85L65 86L64 85z"/>
<path style="fill:#ad8da2; stroke:none;" d="M121 85L122 86L121 85z"/>
<path style="fill:#5a5fe8; stroke:none;" d="M31 86L33 88L31 86z"/>
<path style="fill:#6c3f3c; stroke:none;" d="M69 86L70 87L69 86z"/>
<path style="fill:#b866bc; stroke:none;" d="M120 86L121 87L120 86z"/>
<path style="fill:#eda059; stroke:none;" d="M31 87L32 88L31 87z"/>
<path style="fill:#b866bc; stroke:none;" d="M119 87L120 88L119 87z"/>
<path style="fill:#eda059; stroke:none;" d="M32 88L33 89L32 88z"/>
<path style="fill:#5a5fe8; stroke:none;" d="M118 88L119 89L118 88z"/>
<path style="fill:#eda059; stroke:none;" d="M33 89L34 90L33 89z"/>
<path style="fill:#5a5fe8; stroke:none;" d="M117 89L118 90L117 89z"/>
<path style="fill:#ef9695; stroke:none;" d="M34 90L35 91L34 90z"/>
<path style="fill:#6c3f3c; stroke:none;" d="M116 90L117 91L116 90M35 91L35 105L36 105L35 91z"/>
<path style="fill:#ad8da2; stroke:none;" d="M116 91L116 99L117 99L116 91z"/>
<path style="fill:#5a5fe8; stroke:none;" d="M62 111C62 104.145 53.8827 86.5045 44.1667 93.5C34.8699 100.194 57.9188 110.248 62 111M90 111C94.1161 110.242 116.598 100.341 107.667 93.5C97.6671 85.8407 90 104.356 90 111z"/>
<path style="fill:#b866bc; stroke:none;" d="M116 99L116 108L117 108L116 99z"/>
<path style="fill:#ad8da2; stroke:none;" d="M25 108L26 109L25 108M35 108L36 109L35 108z"/>
<path style="fill:#6c3f3c; stroke:none;" d="M115 108L116 109L115 108z"/>
<path style="fill:#ad8da2; stroke:none;" d="M116 108L117 109L116 108M37 109L38 110L37 109z"/>
<path style="fill:#6c3f3c; stroke:none;" d="M38 109L39 110L38 109z"/>
<path style="fill:#b866bc; stroke:none;" d="M113 109L114 110L113 109z"/>
<path style="fill:#ef9695; stroke:none;" d="M114 109L115 110L114 109M39 110L40 111L39 110z"/>
<path style="fill:#6c3f3c; stroke:none;" d="M40 110L41 111L40 110z"/>
<path style="fill:#b866bc; stroke:none;" d="M111 110L112 111L111 110z"/>
<path style="fill:#eda059; stroke:none;" d="M112 110L113 111L112 110z"/>
<path style="fill:#ef9695; stroke:none;" d="M41 111L42 112L41 111z"/>
<path style="fill:#6c3f3c; stroke:none;" d="M42 111L43 112L42 111z"/>
<path style="fill:#b866bc; stroke:none;" d="M109 111L110 112L109 111z"/>
<path style="fill:#eda059; stroke:none;" d="M110 111L111 112L110 111M42 112L43 113L42 112z"/>
<path style="fill:#ad8da2; stroke:none;" d="M43 112L44 113L43 112z"/>
<path style="fill:#6c3f3c; stroke:none;" d="M107 112L108 113L107 112z"/>
<path style="fill:#eda059; stroke:none;" d="M108 112L109 113L108 112z"/>
<path style="fill:#b866bc; stroke:none;" d="M45 113L46 114L45 113z"/>
<path style="fill:#ad8da2; stroke:none;" d="M106 113L107 114L106 113M46 114L47 115L46 114z"/>
<path style="fill:#6c3f3c; stroke:none;" d="M104 114L105 115L104 114z"/>
<path style="fill:#eda059; stroke:none;" d="M105 114L106 115L105 114z"/>
<path style="fill:#6c3f3c; stroke:none;" d="M48 115L49 116L48 115z"/>
<path style="fill:#b866bc; stroke:none;" d="M103 115L104 116L103 115M49 116L50 117L49 116z"/>
<path style="fill:#ad8da2; stroke:none;" d="M102 116L103 117L102 116z"/>
<path style="fill:#b36445; stroke:none;" d="M50 117L51 118L50 117z"/>
<path style="fill:#eda059; stroke:none;" d="M101 117L102 118L101 117z"/>
<path style="fill:#ad8da2; stroke:none;" d="M51 118L52 119L51 118z"/>
<path style="fill:#eda059; stroke:none;" d="M100 118L101 119L100 118z"/>
<path style="fill:#b36445; stroke:none;" d="M52 119L53 120L52 119z"/>
<path style="fill:#eda059; stroke:none;" d="M99 119L100 120L99 119z"/>
<path style="fill:#b36445; stroke:none;" d="M53 120L54 121L53 120z"/>
<path style="fill:#eda059; stroke:none;" d="M98 120L99 121L98 120z"/>
<path style="fill:#b36445; stroke:none;" d="M54 121L55 122L54 121z"/>
<path style="fill:#eda059; stroke:none;" d="M97 121L98 122L97 121z"/>
<path style="fill:#6c3f3c; stroke:none;" d="M55 122L56 123L55 122z"/>
<path style="fill:#ad8da2; stroke:none;" d="M96 122L97 123L96 122z"/>
<path style="fill:#6c3f3c; stroke:none;" d="M56 123L57 124L56 123z"/>
<path style="fill:#b866bc; stroke:none;" d="M95 123L96 124L95 123z"/>
<path style="fill:#b36445; stroke:none;" d="M56 124L57 125L56 124z"/>
<path style="fill:#6c3f3c; stroke:none;" d="M94 124L95 125L94 124z"/>
<path style="fill:#ad8da2; stroke:none;" d="M110 124L111 125L110 124z"/>
<path style="fill:#eda059; stroke:none;" d="M94 125L95 126L94 125z"/>
<path style="fill:#ad8da2; stroke:none;" d="M109 125L110 126L109 125z"/>
<path style="fill:#6c3f3c; stroke:none;" d="M58 126L59 127L58 126z"/>
<path style="fill:#b866bc; stroke:none;" d="M93 126L94 127L93 126z"/>
<path style="fill:#ad8da2; stroke:none;" d="M108 126L109 127L108 126z"/>
<path style="fill:#eda059; stroke:none;" d="M93 127L94 128L93 127z"/>
<path style="fill:#ad8da2; stroke:none;" d="M107 127L108 128L107 127z"/>
<path style="fill:#6c3f3c; stroke:none;" d="M59 128L60 129L59 128z"/>
<path style="fill:#ad8da2; stroke:none;" d="M92 128L93 129L92 128z"/>
<path style="fill:#6c3f3c; stroke:none;" d="M68 129L69 130L68 129M71 129L71 130L84 130L71 129M91 129L92 130L91 129z"/>
<path style="fill:#ad8da2; stroke:none;" d="M102 132L103 133L102 132M99.6667 133.333L100.333 133.667L99.6667 133.333M90.6667 134.333L91.3333 134.667L90.6667 134.333z"/>
</svg>
