<?xml version="1.0" encoding="utf-8"?>
<!-- Generator: Adobe Illustrator 26.0.3, SVG Export Plug-In . SVG Version: 6.00 Build 0)  -->
<svg version="1.0" id="katman_1" xmlns="http://www.w3.org/2000/svg" xmlns:xlink="http://www.w3.org/1999/xlink" x="0px" y="0px"
	 viewBox="0 0 600 450" style="enable-background:new 0 0 600 450;" xml:space="preserve">
<g>
	<path d="M497.8,268.7h-14.4v-69.3c-0.4,0-0.2,0-0.7-0.2c-1.1,2-2.2,3.8-3.3,5.7c-6.2,10.6-12.1,21.2-18.5,31.8
		c-5.7,9.9-19,9.9-24.9,0c-6.6-11.5-13.2-23.2-19.9-34.7c-0.7-1.1-1.1-2-2.2-2.9v69.8h-14.6c0-0.9,0-1.8,0-2.6c0-22.7,0-45.3,0-68
		c0-7.1,4-12.8,10.2-14.4c6.4-1.5,12.6,0,16.6,7.1c6.8,12.1,13.9,24.5,21,36.7c0.4,0.7,0.9,1.5,1.5,2.6c2.6-4.6,5.1-8.8,7.5-13
		c4.9-8.6,9.9-17.2,14.8-26.1c3.1-5.5,7.9-8.2,14.4-7.5c6.2,0.4,9.9,3.8,12.1,9.3l0,0c0.2,0.9,0.7,2.2,0.7,2.9v72.9H497.8z"/>
	<path d="M102.2,200.4c0-3.3,0.7-6.8,2.4-9.9c0.4-0.9,0.9-2,1.8-2.6c6.6-7.3,17.9-6,22.7,2.6c11.3,19.4,22.3,38.9,33.6,58.3
		c0.9,1.5,1.8,3.1,3.1,4.4v-69.8h14.4c0,0.9,0.2,1.8,0.2,2.6c0,22.7-0.2,45.5,0,68.2c0,7.5-5.3,12.8-10.6,14.1
		c-6.4,1.5-12.8-1.1-16.3-7.3c-11.7-20.1-23.2-40.2-34.7-60.3c-0.4-0.7-0.9-1.3-1.5-2.4v70.2h-15
		C102.2,245.9,102.2,223.2,102.2,200.4z"/>
	<path d="M234.7,270.2c-2.6-0.7-5.3-1.3-7.7-2c-23.6-6.6-37.5-32.5-29.6-55.6c6-17,18.1-27.6,36-30c26.1-3.8,45.5,13.7,49.9,35.5
		c4.4,23-11,45.9-33.8,50.8c-2,0.4-4.2,0.9-6.2,1.3C240.4,270.2,237.5,270.2,234.7,270.2z M210.6,225.8
		c-0.4,15.5,11.7,29.8,28.9,29.8c16.3,0,29.1-13,29.1-29.8c0-16.6-12.8-29.6-28.9-29.8C223,196,210.2,210.4,210.6,225.8z"/>
	<path d="M336.2,270.2c-1.5-0.2-2.9-0.7-4.4-0.9c-20.8-4-35.8-22.1-35.8-43.3c0-21.9,16.3-41.1,38-43.7c26.5-3.3,46.1,14.6,49.7,36
		c2.4,14.4-1.3,27.2-11.5,38c-7.3,7.7-16.3,12.1-26.7,13.5c-0.2,0-0.7,0.2-0.9,0.4C341.7,270.2,338.9,270.2,336.2,270.2z
		 M340.4,196.3c-16.1-0.2-29.1,12.6-29.4,28.7c-0.4,16.8,12.1,30.5,28.7,30.7c16.3,0.2,29.4-12.6,29.6-29.1
		C369.3,209.5,356.8,196.5,340.4,196.3z"/>
</g>
</svg>
