<?xml version="1.0" standalone="no"?>
<!DOCTYPE svg PUBLIC "-//W3C//DTD SVG 20010904//EN"
 "http://www.w3.org/TR/2001/REC-SVG-20010904/DTD/svg10.dtd">
<svg version="1.0" xmlns="http://www.w3.org/2000/svg"
 width="200.000000pt" height="200.000000pt" viewBox="0 0 200.000000 200.000000"
 preserveAspectRatio="xMidYMid meet">

<g transform="translate(0.000000,200.000000) scale(0.100000,-0.100000)"
fill="#000000" stroke="none">
<path d="M855 1989 c-201 -29 -413 -136 -560 -284 -389 -389 -389 -1021 0
-1410 389 -389 1021 -389 1410 0 389 389 389 1021 0 1410 -221 222 -540 328
-850 284z m407 -398 c208 -77 339 -197 437 -401 58 -119 75 -230 68 -429 -3
-86 -11 -175 -16 -197 -7 -26 -40 -82 -86 -142 -71 -96 -78 -102 -131 -119
-36 -11 -64 -27 -78 -45 -58 -76 -70 -90 -95 -102 -14 -7 -53 -14 -86 -15 -33
-1 -86 -7 -118 -13 -72 -13 -118 -7 -209 29 l-73 28 172 3 c160 2 172 4 178
22 13 40 96 140 150 181 30 23 87 59 126 79 l71 37 -1 123 -2 123 40 41 39 41
-5 68 c-5 64 -8 69 -44 98 l-38 30 -146 -8 c-80 -4 -153 -5 -163 -1 -12 5 -8
7 13 7 17 1 53 9 80 19 29 11 66 17 87 15 45 -5 108 22 108 47 0 33 -62 141
-110 190 -26 26 -70 63 -99 80 -43 26 -50 35 -40 47 19 22 -35 90 -121 150
-149 103 -189 150 -77 88 34 -19 111 -52 169 -74z m-460 47 c32 -21 70 -54 85
-73 28 -35 29 -35 105 -35 l78 0 26 -42 c24 -37 25 -45 15 -78 -14 -48 -14
-50 7 -50 9 0 25 -10 34 -23 10 -12 42 -35 72 -51 62 -33 107 -83 81 -92 -8
-3 -13 -9 -10 -14 2 -4 -7 -12 -20 -18 -15 -7 -25 -8 -25 -2 0 6 -4 10 -10 10
-5 0 -7 -6 -4 -14 3 -8 -8 -23 -27 -37 l-32 -23 5 22 c4 12 2 22 -3 22 -5 0
-9 -6 -9 -14 0 -8 -5 -18 -10 -21 -16 -10 -279 -23 -300 -15 -3 1 -12 3 -20 4
-8 0 -20 12 -27 26 -7 14 -13 19 -13 12 0 -9 -10 -6 -32 9 -33 23 -33 23 -14
1 24 -28 7 -29 -22 -2 -12 11 -24 20 -28 20 -14 0 -44 33 -44 49 0 18 62 71
83 71 8 0 22 9 32 20 10 11 27 22 39 26 11 3 30 16 41 27 19 20 20 23 6 54
-17 37 -25 38 -96 19 -145 -38 -276 -152 -321 -278 -13 -39 -13 -43 4 -61 15
-14 36 -19 84 -21 35 -1 69 -5 76 -10 6 -4 20 -9 29 -11 89 -22 81 -24 -72
-20 l-160 5 -37 -33 c-36 -31 -38 -35 -39 -100 -2 -66 -1 -69 34 -105 l37 -38
0 -124 0 -125 86 -45 c87 -45 188 -130 214 -180 l13 -25 -22 19 c-11 11 -21
15 -21 9 0 -36 -308 95 -362 153 -59 65 -104 188 -78 219 8 10 9 56 4 169 -9
212 7 284 94 415 29 44 28 57 -3 37 -33 -22 -32 -9 5 45 39 60 107 130 205
211 44 37 93 81 109 98 54 58 82 60 158 8z m-157 -468 c3 -5 1 -10 -4 -10 -6
0 -11 5 -11 10 0 6 2 10 4 10 3 0 8 -4 11 -10z m687 -12 c-7 -7 -12 -8 -12 -2
0 14 12 26 19 19 2 -3 -1 -11 -7 -17z m-632 -23 c13 -14 21 -25 18 -25 -2 0
-15 11 -28 25 -13 14 -21 25 -18 25 2 0 15 -11 28 -25z m380 -66 c0 -14 -17
-10 -23 5 -4 10 -1 13 9 9 7 -3 14 -9 14 -14z m-37 4 c14 -22 -9 -31 -58 -22
-71 13 -73 24 -5 27 32 2 61 -1 63 -5z"/>
<path d="M1267 1193 c-4 -3 -7 -11 -7 -17 0 -6 5 -5 12 2 6 6 9 14 7 17 -3 3
-9 2 -12 -2z"/>
</g>
</svg>
